# xmcd
#
# Track frame offsets: 
#        150
#        6922
#        10103
#        21406
#        70657
#        117753
#        139000
#        164386
#        205925
#        228341
#        264366
#        309256
#
# Disc length: 4246 seconds
#
# Revision: 1
# Processed by: cddbd v1.5.2PL0 Copyright (c) Steve Scherf et al.
# Submitted via: ExactAudioCopy v0.99pb5
#
DISCID=9310940c
DTITLE=Various Artist - Body and Mind Music 
DYEAR=2007
DGENRE=New Age
TTITLE0=Schawkie Roth - Invocation
TTITLE1=David Sun Productions - Ocean Sounds for Aromatherapy
TTITLE2=David Sun - The Spirit of Feng Shui
TTITLE3=Sangit Om - East (Chen)
TTITLE4=Luna - Like a Leaf in the Wind
TTITLE5=Daniele Garella - Dans une Grotte de Sabarhés
TTITLE6=Karunesh - Der Innere Tempel (The Inner Temple)
TTITLE7=Guna Sangah - Vishuddha Chakra
TTITLE8=Ben Scott and Christa Michell - Brow Chakra
TTITLE9=Surajit Das - Skhalana
TTITLE10=Gomer Edwin Evans - Variations on Pachelbel
TTITLE11=David Sun Productions - Ocean Sounds for Aromatherapy
EXTD=
EXTT0=
EXTT1=
EXTT2=
EXTT3=
EXTT4=
EXTT5=
EXTT6=
EXTT7=
EXTT8=
EXTT9=
EXTT10=
EXTT11=
PLAYORDER=
